<svg xmlns="http://www.w3.org/2000/svg" viewBox="0 0 30 30">
  <rect x="1.5" y="1.5" width="5" height="5" rx="0.8" fill="#EE7C2A"/>
  <rect x="7" y="1.5" width="5" height="5" rx="0.8" fill="#B0431F"/>
  <rect x="12.5" y="1.5" width="5" height="5" rx="0.8" fill="#EE7C2A"/>
  <rect x="18" y="1.5" width="5" height="5" rx="0.8" fill="#B0431F"/>
  <rect x="23.5" y="1.5" width="5" height="5" rx="0.8" fill="#EE7C2A"/>
  <rect x="1.5" y="7" width="5" height="5" rx="0.8" fill="#B0431F"/>
  <rect x="7" y="7" width="5" height="5" rx="0.8" fill="#EE7C2A"/>
  <rect x="12.5" y="7" width="5" height="5" rx="0.8" fill="#B0431F"/>
  <rect x="18" y="7" width="5" height="5" rx="0.8" fill="#EE7C2A"/>
  <rect x="23.5" y="7" width="5" height="5" rx="0.8" fill="#B0431F"/>
  <rect x="1.5" y="12.5" width="5" height="5" rx="0.8" fill="#EE7C2A"/>
  <rect x="7" y="12.5" width="5" height="5" rx="0.8" fill="#B0431F"/>
  <rect x="12.5" y="12.5" width="5" height="5" rx="0.8" fill="#EE7C2A"/>
  <rect x="18" y="12.5" width="5" height="5" rx="0.8" fill="#B0431F"/>
  <rect x="23.5" y="12.5" width="5" height="5" rx="0.8" fill="#EE7C2A"/>
  <rect x="1.5" y="18" width="5" height="5" rx="0.8" fill="#B0431F"/>
  <rect x="7" y="18" width="5" height="5" rx="0.8" fill="#EE7C2A"/>
  <rect x="12.5" y="18" width="5" height="5" rx="0.8" fill="#B0431F"/>
  <rect x="18" y="18" width="5" height="5" rx="0.8" fill="#EE7C2A"/>
  <rect x="23.5" y="18" width="5" height="5" rx="0.8" fill="#B0431F"/>
  <rect x="1.5" y="23.5" width="5" height="5" rx="0.8" fill="#EE7C2A"/>
  <rect x="7" y="23.5" width="5" height="5" rx="0.8" fill="#B0431F"/>
  <rect x="12.5" y="23.5" width="5" height="5" rx="0.8" fill="#EE7C2A"/>
  <rect x="18" y="23.5" width="5" height="5" rx="0.8" fill="#B0431F"/>
  <rect x="23.5" y="23.5" width="5" height="5" rx="0.8" fill="#EE7C2A"/>
</svg>
